<?xml version="1.0" encoding="UTF-8"?>
<svg id="Layer_1" data-name="Layer 1" xmlns="http://www.w3.org/2000/svg" viewBox="0 0 151.01 38.24">
  <defs>
    <style>
      .cls-1 {
        fill: #82b841;
      }
    </style>
  </defs>
  <path class="cls-1" d="M18.39.02H.47s0,0,0,0c0,0,0,0,0,0C.21.03.01.22,0,.47c0,0,0,.01,0,.02s0,.01,0,.02v37.26c0,.25.2.45.45.45h17.93c7.57,0,13.02-9.55,12.68-19.1C31.41,9.57,25.95.02,18.39.02M16.61,30.22s-2.97.23-4.32.23h-3.84c-.25,0-.46-.2-.46-.45,0,0,0,0,0,0h0V8.26s0,0,0,0h0c0-.25.19-.44.43-.46.01,0,.02,0,.03,0s.02,0,.03,0h3.61c.65,0,2.43.01,3.69.13.27.03.54.07.82.1,3.06.65,5.51,3.09,5.75,11.1-.25,8.02-2.69,10.45-5.75,11.1"/>
  <path class="cls-1" d="M65.75,29.43s0,0,0-.02c0-.18-.11-.33-.26-.4h-.02s-14.64-5.91-14.64-5.91c7.8.42,11.7-.11,14.21-7.89.05-.21.11-.52.16-.83,0,0,0-.01,0-.02.06-.37.12-.72.14-.83,0-.02,0-.03,0-.04.46-3.88-.12-13.47-9.38-13.47h-20.54s-.01,0-.02,0-.02,0-.02,0c-.24.01-.44.21-.44.45,0,0,0,0,0,0,0,0,0,.01,0,.01v6.82s0,.03,0,.05c0,.02,0,.03,0,.05.02.22.2.39.42.41.02,0,.03,0,.04,0s.03,0,.04,0h14.65c2.38,0,4.08.53,4.4.63,3.53,1.43,3.36,6.37-.44,6.47h-9.26c-6.45-.07-9.67,3.66-9.92,10.88v11.97s0,0,0,0v.02s0,0,0,0c0,.24.2.44.45.45,0,0,.01,0,.02,0s.01,0,.02,0h7.16s.01,0,.02,0c0,0,.01,0,.02,0,.23-.01.42-.19.44-.42,0-.02,0-.03,0-.05,0-.02,0-.03,0-.05v-8.89l22.09,9.14h.01c.05.03.11.04.17.04.25,0,.46-.2.47-.45,0,0,0-.01,0-.02s0-.01,0-.02v-8.08s0,0,0-.02"/>
  <path class="cls-1" d="M77.78,0s-.02,0-.03,0h-.04s-.02,0-.03,0h-7.35c-.23.01-.42.19-.44.42,0,.01,0,.03,0,.04v.02s0,.02,0,.04v37.2s0,.02,0,.04v.02s0,.02,0,.04c.02.24.22.42.46.42,0,0,.02,0,.03,0h0s0,0,0,0h7.35c.09,0,.18-.03.25-.08.12-.08.2-.22.21-.37h0v-13.14h0V.52s0-.03,0-.05,0-.03,0-.05c-.02-.22-.19-.39-.41-.41"/>
  <path class="cls-1" d="M112.8,0s-.04,0-.06,0h-.04s-.04,0-.06,0h-7.22s-.04,0-.06,0h-.04s-.04,0-.06,0c-.21.04-.36.2-.38.42,0,.01,0,.02,0,.03v.02s0,.02,0,.03v16.36s-.28,3.48-.36,3.84h0c-1.26,6.1-4.46,9.15-9.61,9.1h-12.17s0,0-.02,0h-.04s0,0-.02,0c-.23.02-.41.21-.43.44,0,0,0,0,0,0v.03s0,0,0,.01v7.46s0,0,0,0v.03s0,0,0,.01c.01.23.19.42.42.44.01,0,.03,0,.04,0s.03,0,.04,0h14.69c9.05-.29,14.79-5.32,15.75-15.55V.51s0-.03,0-.04c0-.02,0-.03,0-.05-.02-.21-.18-.37-.38-.41"/>
  <path class="cls-1" d="M150.62,35.11c-1.2-3.01-14.32-33.64-14.32-33.64,0,0-.45-1.47-1.66-1.47h-5.57s-.69.09-1.2,1.86c-.51,1.78-10.44,24.42-10.44,24.42,0,0-.99,1.88,1.17,1.88h5.6s.63.18,1.17-1.2c.54-1.38,6.5-15.95,6.5-15.95l8.94,19.95h-25.1s-.21-.12-.48.33c-.27.45-2.11,5.54-2.11,5.54,0,0-.6,1.41.96,1.41h35.75s1.99-.12.78-3.13"/>
</svg>