<?xml version="1.0" encoding="UTF-8"?>
<svg id="Layer_1" data-name="Layer 1" xmlns="http://www.w3.org/2000/svg" viewBox="0 0 151 38.24">
  <defs>
    <style>
      .cls-1 {
        fill: #fff;
      }
    </style>
  </defs>
  <path class="cls-1" d="M18.39.02H.47C.21.03,0,.22,0,.47v37.3c0,.25.2.45.45.45h17.93c7.57,0,13.02-9.55,12.68-19.1C31.41,9.57,25.95.02,18.39.02M16.61,30.22s-2.97.23-4.32.23h-3.84c-.25,0-.46-.2-.46-.45h0V8.26h0c0-.25.19-.44.43-.46h3.67c.65,0,2.43.01,3.69.13.27.03.54.07.82.1,3.06.65,5.51,3.09,5.75,11.1-.25,8.02-2.69,10.45-5.75,11.1"/>
  <path class="cls-1" d="M65.75,29.43v-.02c0-.18-.11-.33-.26-.4h-.02l-14.64-5.91c7.8.42,11.7-.11,14.21-7.89.05-.21.11-.52.16-.83v-.02c.06-.37.12-.72.14-.83v-.04c.46-3.88-.12-13.47-9.38-13.47h-20.58c-.24,0-.44.21-.44.45h0v6.93c.02.22.2.39.42.41h14.73c2.38,0,4.08.53,4.4.63,3.53,1.43,3.36,6.37-.44,6.47h-9.26c-6.45-.07-9.67,3.66-9.92,10.88v11.97h0v.02h0c0,.24.2.44.45.45h7.24c.23,0,.42-.19.44-.42v-8.99l22.09,9.14h.01c.05.03.11.04.17.04.25,0,.46-.2.47-.45v-8.14"/>
  <path class="cls-1" d="M77.78,0h-7.45c-.23,0-.42.19-.44.42v37.4c.02.24.22.42.46.42h7.38c.09,0,.18-.03.25-.08.12-.08.2-.22.21-.37h0v-13.14h0V.42c-.02-.22-.19-.39-.41-.41"/>
  <path class="cls-1" d="M112.8,0h-7.54c-.21.04-.36.2-.38.42v16.44s-.28,3.48-.36,3.84h0c-1.26,6.1-4.46,9.15-9.61,9.1h-12.25c-.23.02-.41.21-.43.44h0v.03h0v7.47h0v.03h0c.01.24.19.43.42.45h14.77c9.05-.29,14.79-5.32,15.75-15.55V.42c-.02-.21-.18-.37-.38-.41"/>
  <path class="cls-1" d="M150.62,35.11c-1.2-3.01-14.32-33.64-14.32-33.64C136.3,1.47,135.85,0,134.64,0h-5.57s-.69.09-1.2,1.86c-.51,1.78-10.44,24.42-10.44,24.42,0,0-.99,1.88,1.17,1.88h5.6s.63.18,1.17-1.2c.54-1.38,6.5-15.95,6.5-15.95l8.94,19.95h-25.1s-.21-.12-.48.33c-.27.45-2.11,5.54-2.11,5.54,0,0-.6,1.41.96,1.41h35.75s1.99-.12.78-3.13"/>
</svg>